<?xml version="1.0" encoding="UTF-8"?>
<!DOCTYPE svg PUBLIC "-//W3C//DTD SVG 1.1//EN" "http://www.w3.org/Graphics/SVG/1.1/DTD/svg11.dtd">
<!-- Creator: CorelDRAW 2019 (64-Bit) -->
<svg xmlns="http://www.w3.org/2000/svg" xml:space="preserve" width="813px" height="1000px" version="1.1" style="shape-rendering:geometricPrecision; text-rendering:geometricPrecision; image-rendering:optimizeQuality; fill-rule:evenodd; clip-rule:evenodd"
viewBox="0 0 846.53 1041.3"
 xmlns:xlink="http://www.w3.org/1999/xlink"
 xmlns:xodm="http://www.corel.com/coreldraw/odm/2003">
 <defs>
  <style type="text/css">
   <![CDATA[
    .fil5 {fill:black}
    .fil1 {fill:#120F10}
    .fil2 {fill:#232A2A}
    .fil4 {fill:#232A2A}
    .fil0 {fill:#9D9C9B}
    .fil3 {fill:#9D9C9B}
    .fil6 {fill:#E29418}
    .fil7 {fill:white}
    .fil8 {fill:black;fill-rule:nonzero}
   ]]>
  </style>
 </defs>
 <g id="Background">
  <metadata id="CorelCorpID_0Corel-Layer"/>
  <polygon class="fil0" points="423.27,1041.3 846.53,520.65 423.27,0 0,520.65 "/>
  <polygon class="fil1" points="423.27,1022.57 831.31,520.65 423.27,18.73 15.22,520.65 "/>
  <polygon class="fil2" points="423.27,985.12 800.86,520.65 423.27,56.18 45.67,520.65 "/>
  <polygon class="fil3" points="423.27,971.03 789.41,520.65 423.27,70.27 57.13,520.65 "/>
  <polygon class="fil4" points="423.27,957.02 778.02,520.65 423.27,84.28 68.51,520.65 "/>
  <rect class="fil5" x="38.33" y="713.54" width="769.87" height="146.08"/>
  <rect class="fil6" x="45.36" y="720.09" width="755.82" height="132.97"/>
 </g>
 <g id="Mansion">
  <metadata id="CorelCorpID_1Corel-Layer"/>
  <polygon class="fil6" points="653.48,422.24 594.19,319.55 253.07,319.55 193.78,422.24 "/>
  <path class="fil7" d="M444.07 619.26l185.87 0 0 -187.72 -412.62 0 0 187.72 185.87 0 0 -66.6 40.88 0 0 66.6zm-127.61 -73.73l41.51 0 0 42.75 -41.51 0 0 -42.75zm-72.48 0l41.51 0 0 42.75 -41.51 0 0 -42.75zm0 -88.59l41.51 0 0 42.74 -41.51 0 0 -42.74zm90.75 0l41.51 0 0 42.74 -41.51 0 0 -42.74zm268.56 0l-41.51 0 0 42.74 41.51 0 0 -42.74zm-90.76 0l-41.5 0 0 42.74 41.5 0 0 -42.74zm18.27 88.59l-41.51 0 0 42.75 41.51 0 0 -42.75zm72.49 0l-41.51 0 0 42.75 41.51 0 0 -42.75z"/>
  <polygon class="fil6" points="347.1,657.05 364.45,626.07 482.81,626.07 500.16,657.05 "/>
  <path class="fil8" d="M59.17 819.76l0 -59.83c0,-4.09 1.4,-7.58 4.24,-10.44 2.84,-2.86 6.3,-4.29 10.41,-4.29l30.08 0c4.11,0 7.59,1.43 10.47,4.29 2.89,2.86 4.32,6.33 4.32,10.44l0 15.44 -16.09 0 0 -11.89c0,-1.01 -0.36,-1.83 -1.05,-2.52 -0.69,-0.67 -1.54,-1.01 -2.55,-1.01l-20.15 0c-1.01,0 -1.85,0.34 -2.55,1.01 -0.69,0.69 -1.05,1.51 -1.05,2.52l0 52.73c0,1 0.36,1.83 1.05,2.52 0.7,0.67 1.54,1.01 2.55,1.01l20.15 0c1.01,0 1.86,-0.34 2.55,-1.01 0.69,-0.67 1.05,-1.5 1.05,-2.5l0 -12.58 16.09 0 0 16.18c0,4.06 -1.43,7.53 -4.32,10.39 -2.88,2.83 -6.36,4.26 -10.47,4.26l-30.08 0c-4.11,0 -7.57,-1.43 -10.41,-4.29 -2.84,-2.86 -4.24,-6.34 -4.24,-10.43z"/>
  <path id="1" class="fil8" d="M136.74 819.76l0 -12.22 16.08 0 0 8.67c0,1 0.36,1.85 1.05,2.52 0.7,0.67 1.57,1.01 2.57,1.01l18.93 0c1,0 1.85,-0.34 2.54,-1.01 0.7,-0.69 1.05,-1.52 1.05,-2.52l0 -12.85c0,-1.92 -1.2,-3.15 -3.61,-3.73 -7.18,-1.94 -15.15,-4.22 -23.98,-6.84 -4.49,-1.36 -8,-3.15 -10.54,-5.4 -2.55,-2.24 -3.82,-5.28 -3.82,-9.07l0 -18.39c0,-4.09 1.4,-7.58 4.24,-10.44 2.84,-2.86 6.32,-4.29 10.41,-4.29l28.27 0c4.11,0 7.59,1.43 10.45,4.29 2.84,2.86 4.27,6.33 4.27,10.44l0 12.49 -16.09 0 0 -8.94c0,-1.01 -0.33,-1.85 -1.03,-2.52 -0.71,-0.67 -1.56,-1.01 -2.56,-1.01l-18.21 0c-1.01,0 -1.86,0.34 -2.59,1.01 -0.72,0.67 -1.08,1.49 -1.08,2.5l0 11.01c0,0.94 0.34,1.77 1.03,2.44 0.67,0.67 1.56,1.11 2.66,1.38 2.66,0.74 6.57,1.84 11.71,3.29 5.16,1.43 9.36,2.61 12.64,3.53 9.27,2.63 13.92,7.48 13.92,14.59l0 20.01c0,4.12 -1.41,7.6 -4.22,10.48 -2.82,2.86 -6.28,4.29 -10.37,4.29l-28.93 0c-4.09,0 -7.6,-1.43 -10.46,-4.29 -2.88,-2.86 -4.33,-6.32 -4.33,-10.43z"/>
  <polygon id="2" class="fil8" points="202.83,835.29 257.5,835.29 257.5,841.05 202.83,841.05 "/>
  <polygon id="3" class="fil8" points="267.28,834.48 267.28,745.2 282.7,745.2 306.67,799.92 330.55,745.2 345.97,745.2 345.97,834.48 330.55,834.48 330.55,781.13 313.49,819.22 299.77,819.22 282.7,781.13 282.7,834.48 "/>
  <path id="4" class="fil8" d="M358.55 834.48l30.16 -89.28 14.86 0 30.18 89.28 -16.24 0 -6.41 -19.43 -30.19 0 -6.14 19.43 -16.22 0zm27.23 -33.78l20.63 0 -10.35 -34.03 -10.28 34.03z"/>
  <polygon id="5" class="fil8" points="446.17,834.48 446.17,745.2 461.59,745.2 495.51,803.27 495.51,745.2 510.92,745.2 510.92,834.48 495.51,834.48 461.59,776.68 461.59,834.48 "/>
  <path id="6" class="fil8" d="M530.47 819.76l0 -12.22 16.09 0 0 8.67c0,1 0.35,1.85 1.05,2.52 0.69,0.67 1.56,1.01 2.57,1.01l18.92 0c1.01,0 1.85,-0.34 2.55,-1.01 0.69,-0.69 1.05,-1.52 1.05,-2.52l0 -12.85c0,-1.92 -1.21,-3.15 -3.62,-3.73 -7.18,-1.94 -15.15,-4.22 -23.98,-6.84 -4.49,-1.36 -7.99,-3.15 -10.54,-5.4 -2.55,-2.24 -3.82,-5.28 -3.82,-9.07l0 -18.39c0,-4.09 1.41,-7.58 4.24,-10.44 2.84,-2.86 6.33,-4.29 10.41,-4.29l28.27 0c4.11,0 7.59,1.43 10.45,4.29 2.84,2.86 4.27,6.33 4.27,10.44l0 12.49 -16.09 0 0 -8.94c0,-1.01 -0.33,-1.85 -1.02,-2.52 -0.72,-0.67 -1.57,-1.01 -2.57,-1.01l-18.21 0c-1.01,0 -1.86,0.34 -2.59,1.01 -0.72,0.67 -1.08,1.49 -1.08,2.5l0 11.01c0,0.94 0.34,1.77 1.03,2.44 0.67,0.67 1.57,1.11 2.66,1.38 2.66,0.74 6.57,1.84 11.71,3.29 5.16,1.43 9.36,2.61 12.64,3.53 9.28,2.63 13.92,7.48 13.92,14.59l0 20.01c0,4.12 -1.41,7.6 -4.22,10.48 -2.82,2.86 -6.28,4.29 -10.37,4.29l-28.93 0c-4.09,0 -7.6,-1.43 -10.46,-4.29 -2.88,-2.86 -4.33,-6.32 -4.33,-10.43z"/>
  <polygon id="7" class="fil8" points="606.88,834.48 606.88,745.2 622.97,745.2 622.97,834.48 "/>
  <path id="8" class="fil8" d="M642.34 819.76l0 -59.83c0,-4.09 1.4,-7.58 4.24,-10.44 2.84,-2.86 6.32,-4.29 10.41,-4.29l31.48 0c4.11,0 7.58,1.43 10.44,4.29 2.85,2.86 4.28,6.35 4.28,10.44l0 59.83c0,4.09 -1.43,7.57 -4.28,10.43 -2.86,2.86 -6.33,4.29 -10.44,4.29l-31.48 0c-4.09,0 -7.57,-1.43 -10.41,-4.29 -2.84,-2.86 -4.24,-6.34 -4.24,-10.43zm16.08 -3.55c0,1 0.36,1.83 1.05,2.52 0.69,0.67 1.54,1.01 2.55,1.01l21.49 0c1.01,0 1.86,-0.34 2.55,-1.01 0.69,-0.69 1.05,-1.52 1.05,-2.52l0 -52.73c0,-1.01 -0.36,-1.83 -1.05,-2.52 -0.69,-0.67 -1.54,-1.01 -2.55,-1.01l-21.49 0c-1.01,0 -1.86,0.34 -2.55,1.01 -0.69,0.69 -1.05,1.51 -1.05,2.52l0 52.73z"/>
  <polygon id="9" class="fil8" points="722.61,834.48 722.61,745.2 738.03,745.2 771.94,803.27 771.94,745.2 787.36,745.2 787.36,834.48 771.94,834.48 738.03,776.68 738.03,834.48 "/>
 </g>
</svg>
