<?xml version="1.0" encoding="utf-8"?>
<!-- Generator: Adobe Illustrator 27.4.1, SVG Export Plug-In . SVG Version: 6.00 Build 0)  -->
<svg version="1.1" id="Layer_1" xmlns="http://www.w3.org/2000/svg" xmlns:xlink="http://www.w3.org/1999/xlink" x="0px" y="0px"
	 width="128px" height="128px" viewBox="0 0 128 128" enable-background="new 0 0 128 128" xml:space="preserve">
<g id="_2189914003408">
	<g id="g6">
		<polygon id="polygon1" fill-rule="evenodd" clip-rule="evenodd" fill="#9D9C9B" points="64.269,0 12.549,63.727 64.269,127.916 
			116.451,63.727 		"/>
		<polygon id="polygon2" fill-rule="evenodd" clip-rule="evenodd" fill="#120F10" points="64.269,2.309 14.396,63.727 
			64.269,125.607 114.604,63.727 		"/>
		<polygon id="polygon3" fill-rule="evenodd" clip-rule="evenodd" fill="#232A2A" points="64.269,6.927 18.09,63.727 
			64.269,120.989 110.91,63.727 		"/>
		<polygon id="polygon4" fill-rule="evenodd" clip-rule="evenodd" fill="#9D9C9B" points="64.269,8.774 19.475,63.727 
			64.269,119.142 109.525,63.727 		"/>
		<polygon id="polygon5" fill-rule="evenodd" clip-rule="evenodd" fill="#232A2A" points="64.269,10.621 20.861,63.727 
			64.269,117.295 108.139,63.727 		"/>
		<rect id="rect5" x="17.166" y="87.74" fill-rule="evenodd" clip-rule="evenodd" width="94.205" height="18.01"/>
		<rect id="rect6" x="18.09" y="88.202" fill-rule="evenodd" clip-rule="evenodd" fill="#E29418" width="92.82" height="16.163"/>
	</g>
	<g id="g7">
		<polygon id="polygon6" fill-rule="evenodd" clip-rule="evenodd" fill="#E29418" points="43.489,39.252 36.1,51.721 92.438,51.721 
			85.511,39.252 		"/>
		<path id="path6" fill-rule="evenodd" clip-rule="evenodd" fill="#FFFFFF" d="M67.04,76.196h22.628v-23.09H39.332v23.09H61.96
			v-8.312h5.08C67.04,67.883,67.04,76.196,67.04,76.196z M51.339,66.96h5.08v5.08h-5.08V66.96z M42.565,66.96h5.08v5.08h-5.08V66.96
			z M42.565,56.339h5.08v5.08h-5.08V56.339z M53.648,56.339h5.08v5.08h-5.08V56.339z M86.435,56.339h-5.08v5.08h5.08V56.339z
			 M75.352,56.339h-5.08v5.08h5.08V56.339z M77.661,66.96h-5.08v5.08h5.08V66.96z M86.435,66.96h-5.08v5.08h5.08V66.96z"/>
		<polygon id="polygon7" fill-rule="evenodd" clip-rule="evenodd" fill="#E29418" points="71.658,76.657 73.967,80.813 
			55.033,80.813 57.342,76.657 		"/>
		<path id="path7" d="M19.937,100.67v-7.389c0-0.462,0-0.924,0.462-1.385c0.462-0.462,0.924-0.462,1.385-0.462h3.694
			c0.462,0,0.924,0,1.385,0.462c0.462,0.462,0.462,0.924,0.462,1.385v1.847h-2.309v-1.385c0,0,0,0,0-0.462c0,0,0,0-0.462,0h-2.309
			c0,0,0,0-0.462,0c0,0,0,0,0,0.462v6.465c0,0,0,0,0,0.462c0,0,0,0,0.462,0h2.309c0,0,0,0,0.462,0c0,0,0,0,0-0.462v-1.385h1.847
			v1.847c0,0.462,0,0.924-0.462,1.385c-0.462,0.462-0.924,0.462-1.385,0.462h-3.233c-0.462,0-0.924,0-1.385-0.462
			C19.937,101.594,19.937,101.132,19.937,100.67z"/>
		<path id="_x31_" d="M29.173,100.67v-1.385h1.847v0.924c0,0,0,0,0,0.462c0,0,0,0,0.462,0h2.309c0,0,0,0,0.462,0c0,0,0,0,0-0.462
			v-1.385c0-0.462,0-0.462-0.462-0.462c-0.924,0-1.847-0.462-2.771-0.924c-0.462,0-0.924-0.462-1.385-0.462
			c-0.462-0.462-0.462-0.462-0.462-0.924v-2.309c0-0.462,0-0.924,0.462-1.385c0.462-0.924,0.924-0.924,1.385-0.924h3.233
			c0.462,0,0.924,0,1.385,0.462S36.1,92.82,36.1,93.282v1.385h-1.847v-0.924c0,0,0,0,0-0.462c0,0,0,0-0.462,0h-1.847
			c0,0,0,0-0.462,0c0,0,0,0,0,0.462v1.385c0,0,0,0,0,0.462s0,0,0.462,0c0.462,0,0.924,0,1.385,0.462
			c0.462,0,0.924,0.462,1.385,0.462c0.924,0.462,1.847,0.924,1.847,1.847v2.309c0,0.462,0,0.924-0.462,1.385
			s-0.924,0.462-1.385,0.462H31.02c-0.462,0-0.924,0-1.385-0.462C29.635,101.594,29.173,101.132,29.173,100.67z"/>
		<polygon id="_x32_" points="43.95,102.979 37.485,102.979 37.485,102.518 43.95,102.518 		"/>
		<polygon id="_x33_" points="47.183,91.435 49.954,98.362 53.186,91.435 55.033,91.435 55.033,102.518 53.186,102.518 
			53.186,96.053 50.877,100.67 49.492,100.67 47.183,96.053 47.183,102.518 45.336,102.518 45.336,91.435 		"/>
		<path id="_x34_" d="M56.419,102.518l3.694-11.083h1.847l3.694,11.083h-1.847l-0.924-2.309h-3.694l-0.924,2.309H56.419z
			 M59.651,98.362h2.309l-1.385-4.156L59.651,98.362z"/>
		<polygon id="_x35_" points="69.349,91.435 73.043,98.362 73.043,91.435 75.352,91.435 75.352,102.518 73.043,102.518 
			69.349,95.129 69.349,102.518 67.04,102.518 67.04,91.435 		"/>
		<path id="_x36_" d="M77.661,100.67v-1.385h1.847v0.924c0,0,0,0,0,0.462c0,0,0,0,0.462,0h2.309c0,0,0,0,0.462,0c0,0,0,0,0-0.462
			v-1.385c0-0.462,0-0.462-0.462-0.462c-0.924,0-1.847-0.462-2.771-0.924c-0.462,0-0.924-0.462-1.385-0.462
			c-0.462-0.462-0.462-0.462-0.462-0.924v-2.309c0-0.462,0-0.924,0.462-1.385c0.462-0.462,0.924-0.462,1.385-0.462h3.233
			c0.462,0,0.924,0,1.385,0.462c0.462,0.462,0.462,0.924,0.462,1.385v1.385h-1.847v-0.924c0,0,0,0,0-0.462c0,0,0,0-0.462,0H79.97
			c0,0,0,0-0.462,0c0,0,0,0,0,0.462v1.385c0,0,0,0,0,0.462c0,0,0,0,0.462,0c0.462,0,0.924,0,1.385,0.462
			c0.462,0,0.924,0.462,1.385,0.462c0.924,0.462,1.847,0.924,1.847,1.847v1.847c0,0.462,0,0.924-0.462,1.385
			c-0.462,0.462-0.924,0.462-1.385,0.462h-3.694c-0.462,0-0.924,0-1.385-0.462C77.661,101.594,77.661,101.132,77.661,100.67z"/>
		<polygon id="_x37_" points="88.744,91.435 88.744,102.518 86.897,102.518 86.897,91.435 		"/>
		<path id="_x38_" d="M91.053,100.67v-7.389c0-0.462,0-0.924,0.462-1.385c0.462-0.462,0.924-0.462,1.385-0.462h3.694
			c0.462,0,0.924,0,1.385,0.462c0.462,0.462,0.462,0.924,0.462,1.385v7.389c0,0.462,0,0.924-0.462,1.385
			c-0.462,0.462-0.924,0.462-1.385,0.462H92.9c-0.462,0-0.924,0-1.385-0.462C91.515,101.594,91.053,101.132,91.053,100.67z
			 M93.362,100.209L93.362,100.209C93.362,100.67,93.362,100.67,93.362,100.209l3.233,0.462c0,0,0,0,0.462,0c0,0,0,0,0-0.462v-6.465
			c0,0,0,0,0-0.462c0,0,0,0-0.462,0h-2.771h-0.462c0,0,0,0,0,0.462V100.209z"/>
		<polygon id="_x39_" points="103.06,91.435 107.216,98.362 107.216,91.435 109.063,91.435 109.063,102.518 107.216,102.518 
			103.06,95.129 103.06,102.518 101.212,102.518 101.212,91.435 		"/>
	</g>
</g>
</svg>
