<?xml version="1.0" encoding="utf-8"?>
<!-- Generator: Adobe Illustrator 27.4.1, SVG Export Plug-In . SVG Version: 6.00 Build 0)  -->
<svg version="1.1" id="Layer_1" xmlns="http://www.w3.org/2000/svg" xmlns:xlink="http://www.w3.org/1999/xlink" x="0px" y="0px"
	 viewBox="0 0 80 80" style="enable-background:new 0 0 80 80;" xml:space="preserve">
<style type="text/css">
	.st0{fill-rule:evenodd;clip-rule:evenodd;fill:#9D9C9B;}
	.st1{fill-rule:evenodd;clip-rule:evenodd;fill:#120F10;}
	.st2{fill-rule:evenodd;clip-rule:evenodd;fill:#232A2A;}
	.st3{fill-rule:evenodd;clip-rule:evenodd;}
	.st4{fill-rule:evenodd;clip-rule:evenodd;fill:#E29418;}
	.st5{fill-rule:evenodd;clip-rule:evenodd;fill:#FFFFFF;}
</style>
<g id="_2189914003408">
	<g id="g6">
		<polygon id="polygon1" class="st0" points="41.582,0 9.062,40 41.582,80 74.102,40 		"/>
		<polygon id="polygon2" class="st1" points="41.582,1.44 10.232,40 41.582,78.56 72.932,40 		"/>
		<polygon id="polygon3" class="st2" points="41.582,4.31 12.572,40 41.582,75.69 70.592,40 		"/>
		<polygon id="polygon4" class="st0" points="41.582,5.4 13.452,40 41.582,74.6 69.712,40 		"/>
		<polygon id="polygon5" class="st2" points="41.582,6.47 14.322,40 41.582,73.53 68.842,40 		"/>
		<rect id="rect5" x="12.012" y="54.82" class="st3" width="59.15" height="11.22"/>
		<rect id="rect6" x="12.552" y="55.32" class="st4" width="58.07" height="10.22"/>
	</g>
	<g id="g7">
		<polygon id="polygon6" class="st4" points="28.502,24.55 23.952,32.44 59.272,32.44 54.712,24.55 		"/>
		<path id="path6" class="st5" d="M43.182,47.58h14.28V33.15h-31.7v14.43h14.28v-5.12h3.14V47.58z M33.372,41.91h3.19v3.29h-3.19
			V41.91z M27.812,41.91h3.18v3.29h-3.18V41.91z M27.812,35.11h3.18v3.28h-3.18V35.11z M34.782,35.11h3.19v3.28h-3.19L34.782,35.11z
			 M55.412,35.11h-3.19v3.28h3.19V35.11z M48.442,35.11h-3.19v3.28h3.19V35.11z M49.842,41.91h-3.19v3.29h3.19V41.91z M55.412,41.91
			h-3.19v3.29h3.19V41.91z"/>
		<polygon id="polygon7" class="st4" points="46.152,48.1 47.492,50.48 35.732,50.48 37.062,48.1 		"/>
		<path id="path7" d="M13.612,62.98v-4.6c0-0.31,0.1-0.58,0.32-0.8c0.22-0.22,0.49-0.33,0.8-0.33h2.31c0.32,0,0.59,0.11,0.81,0.33
			s0.33,0.49,0.33,0.8v1.19h-1.24v-0.91c0-0.08-0.02-0.14-0.08-0.2c-0.05-0.05-0.12-0.07-0.19-0.07h-1.55
			c-0.08,0-0.14,0.02-0.2,0.07c-0.05,0.06-0.08,0.12-0.08,0.2v4.05c0,0.08,0.03,0.14,0.08,0.19c0.06,0.05,0.12,0.08,0.2,0.08h1.55
			c0.07,0,0.14-0.03,0.19-0.08c0.06-0.05,0.08-0.11,0.08-0.19v-0.97h1.24v1.25c0,0.31-0.11,0.57-0.33,0.79s-0.49,0.33-0.81,0.33
			h-2.31c-0.31,0-0.58-0.11-0.8-0.33S13.612,63.29,13.612,62.98z"/>
		<path id="_x31_" d="M19.562,62.98v-0.94h1.24v0.67c0,0.08,0.03,0.14,0.08,0.19c0.06,0.05,0.12,0.08,0.2,0.08h1.45
			c0.08,0,0.14-0.03,0.2-0.08c0.05-0.05,0.08-0.11,0.08-0.19v-0.99c0-0.15-0.09-0.24-0.28-0.29c-0.55-0.14-1.16-0.32-1.84-0.52
			c-0.35-0.11-0.61-0.24-0.81-0.42c-0.2-0.17-0.29-0.4-0.29-0.69v-1.42c0-0.31,0.1-0.58,0.32-0.8c0.22-0.22,0.49-0.33,0.8-0.33h2.17
			c0.32,0,0.59,0.11,0.81,0.33c0.21,0.22,0.32,0.49,0.32,0.8v0.96h-1.23v-0.68c0-0.08-0.03-0.14-0.08-0.2
			c-0.06-0.05-0.12-0.07-0.2-0.07h-1.4c-0.07,0-0.14,0.02-0.2,0.07c-0.05,0.06-0.08,0.12-0.08,0.2v0.84c0,0.07,0.03,0.14,0.08,0.19
			s0.12,0.08,0.21,0.11c0.2,0.05,0.5,0.14,0.89,0.25c0.4,0.11,0.72,0.2,0.97,0.27c0.72,0.2,1.08,0.57,1.08,1.12v1.54
			c0,0.31-0.11,0.58-0.33,0.8c-0.22,0.22-0.48,0.33-0.8,0.33h-2.22c-0.31,0-0.58-0.11-0.8-0.33S19.562,63.3,19.562,62.98z"/>
		<polygon id="_x32_" points="28.842,64.62 24.642,64.62 24.642,64.17 28.842,64.17 		"/>
		<polygon id="_x33_" points="30.782,57.25 32.622,61.46 34.452,57.25 35.642,57.25 35.642,64.11 34.452,64.11 34.452,60.01 
			33.142,62.94 32.092,62.94 30.782,60.01 30.782,64.11 29.592,64.11 29.592,57.25 		"/>
		<path id="_x34_" d="M36.602,64.11l2.32-6.86h1.14l2.32,6.86h-1.25l-0.49-1.49h-2.32l-0.47,1.49H36.602z M38.702,61.52h1.58
			l-0.79-2.62L38.702,61.52z"/>
		<polygon id="_x35_" points="44.522,57.25 47.122,61.71 47.122,57.25 48.312,57.25 48.312,64.11 47.122,64.11 44.522,59.67 
			44.522,64.11 43.342,64.11 43.342,57.25 		"/>
		<path id="_x36_" d="M49.812,62.98v-0.94h1.24v0.67c0,0.08,0.02,0.14,0.08,0.19c0.05,0.05,0.12,0.08,0.19,0.08h1.46
			c0.08,0,0.14-0.03,0.19-0.08c0.06-0.05,0.08-0.11,0.08-0.19v-0.99c0-0.15-0.09-0.24-0.27-0.29c-0.55-0.14-1.17-0.32-1.85-0.52
			c-0.34-0.11-0.61-0.24-0.81-0.42c-0.19-0.17-0.29-0.4-0.29-0.69v-1.42c0-0.31,0.11-0.58,0.33-0.8c0.21-0.22,0.48-0.33,0.8-0.33
			h2.17c0.31,0,0.58,0.11,0.8,0.33c0.22,0.22,0.33,0.49,0.33,0.8v0.96h-1.24v-0.68c0-0.08-0.02-0.14-0.08-0.2
			c-0.05-0.05-0.12-0.07-0.19-0.07h-1.4c-0.08,0-0.14,0.02-0.2,0.07c-0.06,0.06-0.08,0.12-0.08,0.2v0.84c0,0.07,0.02,0.14,0.08,0.19
			c0.05,0.05,0.12,0.08,0.2,0.11c0.2,0.05,0.5,0.14,0.9,0.25s0.72,0.2,0.97,0.27c0.71,0.2,1.07,0.57,1.07,1.12v1.54
			c0,0.31-0.11,0.58-0.32,0.8c-0.22,0.22-0.49,0.33-0.8,0.33h-2.22c-0.32,0-0.59-0.11-0.81-0.33S49.812,63.3,49.812,62.98z"/>
		<polygon id="_x37_" points="56.922,57.25 56.922,64.11 55.682,64.11 55.682,57.25 		"/>
		<path id="_x38_" d="M58.402,62.98v-4.6c0-0.31,0.11-0.58,0.33-0.8c0.22-0.22,0.49-0.33,0.8-0.33h2.42c0.31,0,0.58,0.11,0.8,0.33
			c0.22,0.22,0.33,0.49,0.33,0.8v4.6c0,0.31-0.11,0.58-0.33,0.8c-0.22,0.22-0.49,0.33-0.8,0.33h-2.42c-0.31,0-0.58-0.11-0.8-0.33
			C58.512,63.56,58.402,63.29,58.402,62.98z M59.642,62.71c0,0.08,0.03,0.14,0.08,0.19c0.05,0.05,0.12,0.08,0.2,0.08h1.65
			c0.07,0,0.14-0.03,0.19-0.08c0.06-0.05,0.08-0.11,0.08-0.19v-4.05c0-0.08-0.02-0.14-0.08-0.2c-0.05-0.05-0.12-0.07-0.19-0.07
			h-1.65c-0.08,0-0.15,0.02-0.2,0.07c-0.05,0.06-0.08,0.12-0.08,0.2V62.71z"/>
		<polygon id="_x39_" points="65.752,57.25 68.362,61.71 68.362,57.25 69.542,57.25 69.542,64.11 68.362,64.11 65.752,59.67 
			65.752,64.11 64.572,64.11 64.572,57.25 		"/>
	</g>
</g>
</svg>
