<?xml version="1.0" encoding="UTF-8"?>
<!DOCTYPE svg PUBLIC "-//W3C//DTD SVG 1.1//EN" "http://www.w3.org/Graphics/SVG/1.1/DTD/svg11.dtd">
<!-- Creator: CorelDRAW 2019 (64-Bit) -->
<svg xmlns="http://www.w3.org/2000/svg" xml:space="preserve" width="1181px" height="732px" version="1.1" style="shape-rendering:geometricPrecision; text-rendering:geometricPrecision; image-rendering:optimizeQuality; fill-rule:evenodd; clip-rule:evenodd"
viewBox="0 0 1181 732.22"
 xmlns:xlink="http://www.w3.org/1999/xlink"
 xmlns:xodm="http://www.corel.com/coreldraw/odm/2003">
 <defs>
  <style type="text/css">
   <![CDATA[
    .fil9 {fill:none}
    .fil5 {fill:black}
    .fil1 {fill:#120F10}
    .fil2 {fill:#232A2A}
    .fil4 {fill:#232A2A}
    .fil0 {fill:#9D9C9B}
    .fil3 {fill:#9D9C9B}
    .fil6 {fill:#E29418}
    .fil7 {fill:white}
    .fil8 {fill:black;fill-rule:nonzero}
   ]]>
  </style>
 </defs>
 <g id="Background">
  <metadata id="CorelCorpID_0Corel-Layer"/>
  <polygon class="fil0" points="606.6,865.3 1013.06,365.32 606.6,-134.66 200.14,365.32 "/>
  <polygon class="fil1" points="606.6,847.32 998.44,365.32 606.6,-116.67 214.76,365.32 "/>
  <polygon class="fil2" points="606.6,811.35 969.2,365.32 606.6,-80.71 244,365.32 "/>
  <polygon class="fil3" points="606.6,797.82 958.2,365.32 606.6,-67.18 255,365.32 "/>
  <polygon class="fil4" points="606.6,784.37 947.27,365.32 606.6,-53.73 265.93,365.32 "/>
  <rect class="fil5" x="236.95" y="550.55" width="739.3" height="140.28"/>
  <rect class="fil6" x="243.7" y="556.85" width="725.81" height="127.69"/>
 </g>
 <g id="Mansion">
  <metadata id="CorelCorpID_1Corel-Layer"/>
  <polygon class="fil6" points="827.68,270.82 770.74,172.21 443.16,172.21 386.23,270.82 "/>
  <path class="fil7" d="M626.58 460.01l178.49 0 0 -180.26 -396.23 0 0 180.26 178.48 0 0 -63.95 39.26 0 0 63.95zm-122.54 -70.79l39.86 0 0 41.05 -39.86 0 0 -41.05zm-69.61 0l39.86 0 0 41.05 -39.86 0 0 -41.05zm0 -85.08l39.86 0 0 41.05 -39.86 0 0 -41.05zm87.15 0l39.86 0 0 41.05 -39.86 0 0 -41.05zm257.89 0l-39.86 0 0 41.05 39.86 0 0 -41.05zm-87.15 0l-39.86 0 0 41.05 39.86 0 0 -41.05zm17.54 85.08l-39.86 0 0 41.05 39.86 0 0 -41.05zm69.61 0l-39.86 0 0 41.05 39.86 0 0 -41.05z"/>
  <polygon class="fil6" points="533.46,496.31 550.12,466.56 663.78,466.56 680.44,496.31 "/>
  <path class="fil8" d="M256.96 652.56l0 -57.46c0,-3.93 1.35,-7.27 4.07,-10.02 2.73,-2.75 6.05,-4.12 10,-4.12l28.88 0c3.95,0 7.29,1.37 10.06,4.12 2.77,2.75 4.14,6.07 4.14,10.02l0 14.83 -15.44 0 0 -11.42c0,-0.96 -0.35,-1.76 -1.01,-2.42 -0.67,-0.65 -1.48,-0.97 -2.45,-0.97l-19.35 0c-0.97,0 -1.78,0.32 -2.45,0.97 -0.66,0.66 -1.01,1.46 -1.01,2.42l0 50.63c0,0.97 0.35,1.76 1.01,2.43 0.67,0.64 1.48,0.96 2.45,0.96l19.35 0c0.97,0 1.78,-0.32 2.45,-0.96 0.66,-0.64 1.01,-1.44 1.01,-2.4l0 -12.08 15.44 0 0 15.53c0,3.9 -1.37,7.23 -4.14,9.98 -2.77,2.72 -6.11,4.09 -10.06,4.09l-28.88 0c-3.95,0 -7.27,-1.37 -10,-4.11 -2.72,-2.75 -4.07,-6.1 -4.07,-10.02z"/>
  <path id="1" class="fil8" d="M331.45 652.56l0 -11.74 15.45 0 0 8.32c0,0.97 0.34,1.79 1,2.43 0.67,0.64 1.51,0.96 2.47,0.96l18.17 0c0.97,0 1.78,-0.32 2.45,-0.96 0.66,-0.67 1.01,-1.46 1.01,-2.43l0 -12.33c0,-1.85 -1.16,-3.03 -3.48,-3.58 -6.88,-1.87 -14.54,-4.06 -23.02,-6.57 -4.31,-1.31 -7.68,-3.02 -10.13,-5.19 -2.44,-2.15 -3.66,-5.07 -3.66,-8.71l0 -17.66c0,-3.93 1.35,-7.27 4.07,-10.02 2.73,-2.75 6.07,-4.12 10,-4.12l27.14 0c3.95,0 7.3,1.37 10.04,4.12 2.73,2.75 4.1,6.07 4.1,10.02l0 11.99 -15.45 0 0 -8.58c0,-0.96 -0.32,-1.78 -0.99,-2.42 -0.68,-0.65 -1.5,-0.97 -2.46,-0.97l-17.49 0c-0.96,0 -1.78,0.32 -2.49,0.97 -0.68,0.64 -1.03,1.43 -1.03,2.4l0 10.58c0,0.9 0.33,1.69 0.99,2.34 0.64,0.64 1.5,1.07 2.55,1.33 2.56,0.7 6.31,1.76 11.25,3.15 4.95,1.37 8.99,2.51 12.14,3.39 8.9,2.53 13.37,7.19 13.37,14.01l0 19.22c0,3.95 -1.36,7.3 -4.06,10.07 -2.7,2.74 -6.03,4.11 -9.95,4.11l-27.79 0c-3.92,0 -7.29,-1.37 -10.04,-4.11 -2.77,-2.75 -4.16,-6.08 -4.16,-10.02z"/>
  <polygon id="2" class="fil8" points="394.91,667.47 447.41,667.47 447.41,673 394.91,673 "/>
  <polygon id="3" class="fil8" points="456.81,666.69 456.81,580.96 471.61,580.96 494.63,633.5 517.57,580.96 532.37,580.96 532.37,666.69 517.57,666.69 517.57,615.46 501.18,652.04 488,652.04 471.61,615.46 471.61,666.69 "/>
  <path id="4" class="fil8" d="M544.45 666.69l28.97 -85.73 14.26 0 28.99 85.73 -15.6 0 -6.16 -18.66 -28.98 0 -5.9 18.66 -15.58 0zm26.16 -32.44l19.8 0 -9.93 -32.67 -9.87 32.67z"/>
  <polygon id="5" class="fil8" points="628.6,666.69 628.6,580.96 643.4,580.96 675.97,636.72 675.97,580.96 690.78,580.96 690.78,666.69 675.97,666.69 643.4,611.19 643.4,666.69 "/>
  <path id="6" class="fil8" d="M709.55 652.56l0 -11.74 15.45 0 0 8.32c0,0.97 0.34,1.79 1,2.43 0.67,0.64 1.51,0.96 2.47,0.96l18.17 0c0.97,0 1.78,-0.32 2.45,-0.96 0.66,-0.67 1.01,-1.46 1.01,-2.43l0 -12.33c0,-1.85 -1.16,-3.03 -3.48,-3.58 -6.89,-1.87 -14.54,-4.06 -23.02,-6.57 -4.31,-1.31 -7.68,-3.02 -10.13,-5.19 -2.44,-2.15 -3.66,-5.07 -3.66,-8.71l0 -17.66c0,-3.93 1.35,-7.27 4.07,-10.02 2.73,-2.75 6.07,-4.12 10,-4.12l27.14 0c3.95,0 7.3,1.37 10.04,4.12 2.73,2.75 4.1,6.07 4.1,10.02l0 11.99 -15.45 0 0 -8.58c0,-0.96 -0.32,-1.78 -0.99,-2.42 -0.68,-0.65 -1.5,-0.97 -2.46,-0.97l-17.49 0c-0.96,0 -1.78,0.32 -2.49,0.97 -0.68,0.64 -1.03,1.43 -1.03,2.4l0 10.58c0,0.9 0.32,1.69 0.99,2.34 0.64,0.64 1.5,1.07 2.55,1.33 2.56,0.7 6.31,1.76 11.25,3.15 4.95,1.37 8.99,2.51 12.14,3.39 8.9,2.53 13.37,7.19 13.37,14.01l0 19.22c0,3.95 -1.36,7.3 -4.06,10.07 -2.7,2.74 -6.03,4.11 -9.95,4.11l-27.79 0c-3.92,0 -7.29,-1.37 -10.04,-4.11 -2.77,-2.75 -4.16,-6.08 -4.16,-10.02z"/>
  <polygon id="7" class="fil8" points="782.92,666.69 782.92,580.96 798.37,580.96 798.37,666.69 "/>
  <path id="8" class="fil8" d="M816.97 652.56l0 -57.46c0,-3.93 1.35,-7.27 4.08,-10.02 2.72,-2.75 6.07,-4.12 10,-4.12l30.23 0c3.94,0 7.27,1.37 10.02,4.12 2.74,2.75 4.12,6.09 4.12,10.02l0 57.46c0,3.92 -1.38,7.27 -4.12,10.02 -2.75,2.74 -6.08,4.11 -10.02,4.11l-30.23 0c-3.93,0 -7.28,-1.37 -10,-4.11 -2.73,-2.75 -4.08,-6.1 -4.08,-10.02zm15.45 -3.42c0,0.97 0.34,1.76 1.01,2.43 0.66,0.64 1.48,0.96 2.44,0.96l20.64 0c0.97,0 1.78,-0.32 2.45,-0.96 0.66,-0.67 1.01,-1.46 1.01,-2.43l0 -50.63c0,-0.96 -0.35,-1.76 -1.01,-2.42 -0.67,-0.65 -1.48,-0.97 -2.45,-0.97l-20.64 0c-0.96,0 -1.78,0.32 -2.44,0.97 -0.67,0.66 -1.01,1.46 -1.01,2.42l0 50.63z"/>
  <polygon id="9" class="fil8" points="894.06,666.69 894.06,580.96 908.86,580.96 941.43,636.72 941.43,580.96 956.24,580.96 956.24,666.69 941.43,666.69 908.86,611.19 908.86,666.69 "/>
 </g>
 <g id="Border">
  <metadata id="CorelCorpID_2Corel-Layer"/>
  <rect class="fil9" x="94.64" y="-146.63" width="1023.91" height="1023.91"/>
 </g>
</svg>
